<?xml version="1.0" standalone="no"?>
<!DOCTYPE svg PUBLIC "-//W3C//DTD SVG 20010904//EN"
 "http://www.w3.org/TR/2001/REC-SVG-20010904/DTD/svg10.dtd">
<svg version="1.0" xmlns="http://www.w3.org/2000/svg"
 width="1181.000000pt" height="1181.000000pt" viewBox="0 0 1181.000000 1181.000000"
 preserveAspectRatio="xMidYMid meet">
<metadata>
Created by potrace 1.14, written by Peter Selinger 2001-2017
</metadata>
<g transform="translate(0.000000,1181.000000) scale(0.100000,-0.100000)"
fill="#000000" stroke="none">
<path d="M0 5905 l0 -5905 5905 0 5905 0 0 5905 0 5905 -5905 0 -5905 0 0
-5905z m7096 4675 c430 -25 712 -81 1014 -201 610 -243 1148 -744 1642 -1529
164 -261 270 -452 690 -1250 80 -151 182 -339 228 -418 45 -79 97 -180 116
-225 136 -335 154 -799 53 -1340 -88 -470 -295 -1093 -528 -1591 l-48 -101
-189 -181 c-840 -804 -1546 -1340 -2344 -1781 -746 -413 -1544 -655 -2240
-681 -494 -19 -874 32 -1332 176 -672 214 -1346 660 -1931 1278 -430 456 -685
818 -923 1309 -398 823 -519 1691 -374 2679 131 889 594 1858 1112 2323 466
418 1293 824 2313 1134 268 82 752 203 1010 253 320 62 725 116 1020 136 88 6
178 12 200 13 96 8 347 6 511 -3z"/>
<path d="M3447 7933 c-11 -10 -8 -1935 3 -2063 6 -63 15 -140 21 -170 34 -179
146 -416 188 -402 10 3 12 -1 8 -11 -4 -11 -2 -14 9 -10 8 3 14 -1 14 -8 1
-10 5 -9 14 4 19 24 26 21 26 -10 l0 -28 18 22 c22 28 149 50 164 29 5 -7 21
-3 48 12 34 19 41 20 46 8 3 -8 14 -13 25 -11 10 2 21 -1 25 -6 4 -6 10 -6 17
0 7 5 23 7 37 5 108 -16 168 -29 164 -35 -2 -4 10 -6 27 -5 17 1 34 8 38 15 6
10 10 9 14 -2 4 -11 17 -15 41 -13 21 2 34 -1 33 -8 -2 -11 4 -13 55 -15 15 0
33 -8 42 -16 8 -8 20 -15 26 -15 7 0 9 -7 5 -17 -5 -14 -1 -12 14 4 13 14 27
20 37 16 14 -5 12 -9 -10 -20 -26 -14 -27 -39 -1 -29 7 2 16 -2 19 -10 3 -9
10 -12 16 -9 5 3 10 1 10 -4 0 -13 -27 -15 -32 -3 -5 12 -182 41 -189 30 -7
-11 -85 -4 -102 10 -7 6 -24 8 -37 5 -16 -4 -21 -3 -16 5 5 8 -4 12 -29 12
-28 0 -36 -4 -32 -14 4 -9 0 -13 -11 -11 -9 2 -38 4 -64 4 -36 1 -48 5 -48 16
0 19 -2 19 -47 0 -49 -21 -68 -19 -98 9 -25 23 -65 26 -65 4 0 -5 -4 -7 -9 -3
-5 3 -12 -4 -16 -15 -3 -11 -14 -20 -23 -19 -11 0 -12 3 -4 6 6 2 12 11 12 19
0 12 -24 18 -67 17 -7 -1 -13 3 -13 8 0 5 -12 9 -27 9 -25 0 -26 -1 -8 -20 13
-14 26 -18 49 -14 30 5 30 5 9 -8 l-23 -14 29 -17 c17 -10 44 -16 62 -15 19 1
34 -3 37 -10 5 -15 34 -16 49 -1 14 14 129 22 151 10 10 -5 49 -12 88 -15 38
-2 82 -9 97 -15 16 -6 32 -9 37 -6 4 3 15 2 24 -1 13 -5 14 -9 5 -20 -17 -21
-3 -46 23 -42 18 2 23 9 21 31 -1 21 2 27 12 23 7 -2 31 -8 52 -11 62 -11 67
-13 53 -29 -9 -11 -9 -20 1 -38 8 -15 14 -18 17 -10 2 7 14 24 27 38 l23 25
44 -22 c24 -13 47 -22 52 -21 14 4 106 -31 106 -40 0 -13 22 -9 41 8 16 14 19
13 38 -7 11 -12 33 -22 51 -23 16 -1 30 -3 30 -6 0 -3 24 -4 53 -4 101 3 101
2 87 19 -14 17 0 21 16 5 13 -13 91 13 184 60 255 129 403 327 483 650 20 83
21 106 24 1173 l4 1087 -338 -2 -338 -3 -6 -980 c-4 -661 -9 -995 -16 -1025
-46 -184 -101 -262 -228 -322 -66 -30 -78 -33 -201 -36 -144 -5 -207 5 -288
43 -106 50 -172 148 -209 310 -20 87 -21 123 -24 1053 l-4 962 -333 0 c-183 0
-336 -3 -339 -7z m453 -2757 c0 -2 -9 -6 -20 -9 -11 -3 -20 -1 -20 4 0 5 9 9
20 9 11 0 20 -2 20 -4z m762 -48 c-7 -7 -12 -8 -12 -2 0 14 12 26 19 19 2 -3
-1 -11 -7 -17z m72 -15 c27 -5 32 -11 14 -18 -20 -8 -71 13 -63 25 4 6 12 7
18 3 7 -4 21 -9 31 -10z m109 -27 c22 0 22 -22 0 -30 -11 -5 -22 0 -31 11 -7
10 -18 17 -23 16 -5 -2 -9 2 -9 8 0 6 9 8 23 3 12 -4 30 -8 40 -8z m191 -21
c11 -29 -4 -43 -45 -41 -21 0 -39 4 -39 7 0 4 -6 7 -12 6 -7 0 -26 1 -42 1
-24 2 -27 4 -16 17 11 13 15 13 21 3 7 -10 9 -10 9 0 0 10 7 9 30 -3 27 -14
30 -14 40 5 13 23 45 27 54 5z m-199 -53 c-3 -3 -11 0 -18 7 -9 10 -8 11 6 5
10 -3 15 -9 12 -12z m194 -36 c-11 -9 -69 -15 -64 -6 3 6 20 10 37 10 17 0 29
-2 27 -4z"/>
<path d="M6178 7934 c-5 -4 -8 -677 -8 -1496 l0 -1488 340 0 340 0 0 587 c0
578 0 587 19 568 10 -11 182 -231 382 -490 199 -258 397 -514 438 -567 l76
-98 432 0 433 0 -510 612 c-280 337 -510 615 -510 618 0 4 31 19 69 34 94 37
237 133 300 202 150 164 218 336 228 580 12 284 -51 480 -207 647 -139 149
-289 226 -530 273 -71 13 -183 17 -685 21 -330 3 -603 1 -607 -3z m1012 -559
c103 -22 164 -51 211 -102 52 -56 76 -111 89 -202 19 -138 -19 -270 -102 -353
-71 -71 -215 -107 -430 -108 l-108 0 0 390 0 390 134 0 c81 0 163 -6 206 -15z"/>
<path d="M4596 5014 c-5 -12 -14 -15 -35 -11 -33 7 -45 -1 -30 -19 7 -8 22
-11 39 -7 20 4 38 -1 60 -17 18 -13 45 -24 61 -26 17 -2 38 -8 49 -14 26 -14
152 -13 128 1 -10 5 -18 16 -18 23 0 9 -17 13 -51 15 -28 1 -60 6 -71 12 -16
8 -23 8 -29 -2 -7 -11 -10 -9 -15 9 -4 12 -14 22 -23 22 -9 0 -26 7 -38 15
-19 13 -22 13 -27 -1z"/>
</g>
</svg>
